<?xml version="1.0" encoding="UTF-8" standalone="no"?>
<!-- Created with Inkscape (http://www.inkscape.org/) -->

<svg
   width="277.65967mm"
   height="124.05376mm"
   viewBox="0 0 277.65967 124.05376"
   version="1.1"
   id="svg1"
   xmlns="http://www.w3.org/2000/svg"
   xmlns:svg="http://www.w3.org/2000/svg">
  <defs
     id="defs1" />
  <g
     id="layer1"
     transform="translate(-70.449256,-165.68668)">
    <path
       d="m 298.2252,249.28405 c 4.57838,0 8.51165,-0.9573 11.79978,-2.87191 3.32975,-1.9146 5.68138,-4.3911 7.0549,-7.42949 4.78648,5.57732 10.80083,8.36598 18.04305,8.36598 l 12.986,-25.34767 -0.68676,-2.55973 c -2.2892,-6.61787 -7.51276,-13.71439 -15.67062,-21.28956 -1.66488,-1.54 -3.39218,-3.03839 -5.1819,-4.49514 -0.0833,-0.0418 -0.66595,-0.49954 -1.74812,-1.37354 -1.04055,-0.87406 -2.45569,-2.01866 -4.24542,-3.43378 -1.78975,-1.45676 -3.60029,-2.93433 -5.43165,-4.43272 -1.29029,-1.08218 -2.76787,-1.51921 -4.43272,-1.31109 -1.66487,0.1664 -3.01757,0.89487 -4.05812,2.18515 l -8.80301,11.11301 5.11948,4.12056 c -6.0768,2.95515 -9.5314,8.17868 -10.36383,15.6706 -0.24975,2.24758 -0.24975,4.20381 0,5.86868 H 281.0562 v 27.22065 z m 24.22388,-22.7255 c 1.49837,-4.74487 1.81054,-8.71977 0.93649,-11.92464 3.70435,2.20596 6.28489,4.76569 7.74167,7.67922 1.45676,2.91354 1.39429,5.74381 -0.18739,8.49084 z m -9.17759,-8.80301 c 0,1.49839 -0.31218,2.60136 -0.93651,3.30893 -0.58272,0.66596 -1.54002,0.99893 -2.8719,0.99893 h -8.99031 c -0.33297,-3.66272 0.29136,-6.59704 1.87299,-8.80301 1.58163,-2.20596 3.70433,-3.30893 6.36814,-3.30893 0.33297,0.33297 0.74918,0.79082 1.24866,1.37352 0.49945,0.54108 1.16539,1.49838 1.99784,2.8719 0.87406,1.37351 1.31109,2.55973 1.31109,3.55866 z m -84.8109,62.68243 c -1.3319,-15.35845 -2.03948,-25.82633 -2.12272,-31.40365 -0.0833,-3.99569 0.27055,-6.95084 1.06136,-8.86544 0.83243,-1.9146 2.37245,-2.8719 4.62002,-2.8719 2.37243,0 5.55651,0.99891 9.55222,2.99675 3.99569,1.99785 7.38784,3.99571 10.17652,5.99356 l 4.18299,2.99676 7.86651,-12.04952 c 1.04054,3.49623 3.01759,6.38895 5.9311,8.67816 2.95515,2.24757 6.30569,3.37136 10.05168,3.37136 h 9.17761 V 222.0634 h -10.05167 c -1.66488,0 -3.22569,-0.39541 -4.68245,-1.18623 -1.45678,-0.79082 -2.72623,-1.83136 -3.80841,-3.12163 -1.04054,-1.3319 -2.1019,-2.80948 -3.18406,-4.43272 -1.04054,-1.66487 -1.99784,-3.37136 -2.8719,-5.11948 -0.87406,-1.74811 -1.85217,-3.4338 -2.93433,-5.05704 -1.08217,-1.66488 -2.18517,-3.14245 -3.30893,-4.43272 -1.12381,-1.33191 -2.47651,-2.39327 -4.05814,-3.18408 -1.54,-0.79082 -3.20487,-1.18622 -4.9946,-1.18622 -2.99678,0 -5.53571,0.79082 -7.6168,2.37245 -2.03947,1.58161 -4.53677,4.37027 -7.49192,8.36598 -5.07787,6.8676 -7.05492,12.52816 -5.93111,16.98169 h -1.56081 -0.99894 c -0.3746,0 -1.1446,0.10408 -2.31,0.31216 -1.1238,0.20809 -2.20596,0.49945 -3.2465,0.87406 -1.04055,0.3746 -2.20596,1.01975 -3.49623,1.93541 -1.24867,0.87406 -2.33082,1.93542 -3.24649,3.18406 -0.91569,1.24866 -1.68571,2.91354 -2.31002,4.99463 -0.62433,2.08108 -0.93649,4.4119 -0.93649,6.99246 v 49.38426 z m 10.1141,-63.36919 c 0,-3.66272 1.66487,-5.49408 4.99462,-5.49408 1.62324,0 3.57946,0.87406 5.86866,2.62218 2.33082,1.74812 4.24542,3.49623 5.74381,5.24435 l 2.24759,2.62217 h -13.04845 c -1.37351,0 -2.6846,-0.41621 -3.93326,-1.24866 -1.24866,-0.83244 -1.87297,-2.08108 -1.87297,-3.74596 z m -62.66702,-33.90095 19.97847,-6.36814 v -11.11301 l -19.97847,6.36814 z m -12.11194,66.11622 h 26.34658 c 2.33084,0 4.43272,-0.47864 6.30571,-1.43594 1.87299,-0.99894 3.35057,-2.31003 4.43272,-3.93327 1.12379,-1.62324 1.97705,-3.37136 2.55975,-5.24435 0.5827,-1.87299 0.87406,-3.78759 0.87406,-5.7438 l 0.0625,-16.10764 c 0,-2.78866 -0.35379,-5.34841 -1.06136,-7.67922 -0.66594,-2.33082 -1.56082,-4.24542 -2.6846,-5.74381 -1.08216,-1.49839 -2.28919,-2.83027 -3.62109,-3.99569 -1.3319,-1.16541 -2.6846,-2.03947 -4.05814,-2.62217 -1.3319,-0.62433 -2.55975,-1.12379 -3.68353,-1.49839 -1.08216,-0.41621 -1.95622,-0.68676 -2.62218,-0.81163 l -1.06136,-0.12486 21.91389,-6.99246 v -18.54251 l -31.59094,10.05165 c -1.7065,0.5827 -3.10083,1.60245 -4.18299,3.05921 -1.04056,1.45675 -1.56083,3.08002 -1.56083,4.86974 v 22.28849 c 0.29136,-0.0418 0.70757,-0.0625 1.24866,-0.0625 0.54109,-0.0416 1.58163,-0.0623 3.12163,-0.0623 1.54002,0 2.99678,0.0625 4.37029,0.18738 1.41515,0.0833 2.97596,0.29134 4.68245,0.62433 1.7065,0.33297 3.16326,0.77 4.37029,1.31109 1.24866,0.49946 2.2892,1.22785 3.12163,2.18515 0.83245,0.91567 1.24866,1.99784 1.24866,3.24648 0,2.08111 -0.77,3.53787 -2.31,4.37029 -1.54002,0.79082 -3.68353,1.18624 -6.43058,1.18624 H 163.7957 Z m -11.76477,-4.99463 c 0.12486,0.12486 0.29136,0.31222 0.49946,0.56191 0.20812,0.20809 0.66596,0.60351 1.37352,1.18621 0.7492,0.5827 1.5192,1.10297 2.31002,1.56082 0.79081,0.41621 1.81054,0.81163 3.0592,1.18623 1.24864,0.33297 2.51812,0.49946 3.80839,0.49946 h 8.67813 V 222.0634 h -19.60386 c -0.87404,0 -1.81055,-0.14562 -2.80946,-0.43703 -0.9573,-0.33299 -1.8938,-0.7492 -2.80947,-1.24866 -0.91569,-0.49945 -1.85218,-1.08215 -2.80948,-1.74811 -0.9573,-0.66597 -1.87297,-1.35272 -2.74703,-2.06027 -0.83245,-0.74919 -1.64406,-1.47758 -2.43487,-2.18515 -0.74921,-0.74918 -1.43596,-1.45676 -2.06029,-2.12272 -0.62434,-0.66594 -1.1654,-1.24864 -1.62325,-1.74812 -0.45784,-0.49945 -0.81163,-0.91567 -1.06136,-1.24866 l -0.3746,-0.43701 -11.42517,18.97954 5.55651,4.05812 c 8.65732,6.65947 12.986,11.67491 12.986,15.04627 0,2.03948 -1.43596,4.24542 -4.30786,6.61786 -2.87191,2.41408 -6.36813,4.62002 -10.48869,6.61787 -4.07894,1.99784 -8.15787,3.85002 -12.23681,5.55652 -4.07893,1.70649 -7.55435,3.03839 -10.42626,3.99569 l -4.307854,1.43594 v 3.49624 l 14.921414,5.05705 c 10.53031,3.37136 17.1898,5.05705 19.97847,5.05705 2.8719,0 5.5565,-1.43594 8.05381,-4.30785 2.53893,-2.8719 4.55759,-6.43058 6.05598,-10.676 1.54,-4.20381 2.6846,-8.61571 3.43378,-13.23573 0.79082,-4.57839 1.06136,-8.65734 0.81163,-12.23682 z m -64.715978,4.99463 h 10.114096 c 3.745962,0 7.075702,-1.14461 9.989232,-3.43379 2.95515,-2.2892 4.93218,-5.18192 5.93111,-8.67816 1.12378,-3.03839 1.81054,-6.45138 2.06027,-10.23895 0.29136,-3.78759 0.0416,-7.74165 -0.74919,-11.86221 -0.79081,-4.16218 -2.06028,-8.11626 -3.80839,-11.86222 -1.74812,-3.74596 -4.30786,-7.20056 -7.67922,-10.36382 -3.329748,-3.16327 -7.221385,-5.57733 -11.674918,-7.2422 l -7.304624,16.79439 c 3.121636,1.3319 5.910294,2.72623 8.36598,4.18299 2.455685,1.41515 4.391099,2.74705 5.806241,3.99569 1.415142,1.24866 2.622171,2.47651 3.621091,3.68354 0.99893,1.16541 1.66488,2.22677 1.99785,3.18407 0.3746,0.91567 0.64514,1.7273 0.81163,2.43488 0.16648,0.70755 0.22892,1.24864 0.1873,1.62324 l -0.0624,0.5619 H 86.940396 c -1.207031,0 -2.247575,-0.18738 -3.121633,-0.5619 -0.874059,-0.3746 -1.540006,-0.83245 -1.997847,-1.37351 -0.416218,-0.5827 -0.74919,-1.24866 -0.998923,-1.99785 -0.208108,-0.74918 -0.332974,-1.43596 -0.374596,-2.06029 -0.04161,-0.62433 -0.02082,-1.26946 0.06243,-1.9354 0.08324,-0.70757 0.14569,-1.18623 0.187301,-1.43596 0.04161,-0.24973 0.08324,-0.43703 0.124875,-0.56188 h -5.806242 c -5.327588,11.65409 -5.993538,21.24792 -1.997847,28.78145 1.373521,2.53894 3.329747,4.57839 5.868675,6.11841 2.53893,1.49839 11.508424,2.24758 8.428412,2.24758 z"
       id="text2"
       style="font-size:90.1585px;line-height:1.1;font-family:Jomhuria;-inkscape-font-specification:Jomhuria;letter-spacing:0.403836px;word-spacing:-2.40423px;direction:rtl;fill:#000000;stroke-width:3.68696;paint-order:markers fill stroke"
       aria-label="هم‌گرد" />
  </g>
</svg>
